<svg xmlns="http://www.w3.org/2000/svg" width="668" height="190" fill="none"><path fill="#343433" d="M34.326.686C20.627 6.426 5.623 22.605.926 42.827-5.075 68.53 19.975 79.36 21.932 75.836c2.479-4.175-4.436-5.61-5.871-18.918-1.827-17.222 6.132-36.531 16.308-44.881 1.827-1.566 1.827.652 1.827 4.697 0 7.175-.392 72.149-.392 85.587 0 18.266-.782 24.137-2.087 29.878-1.435 5.74-3.653 9.654-1.957 11.22 1.826 1.696 9.915-2.349 14.482-8.742 5.61-7.697 7.437-17.091 7.828-27.137.392-12.134.392-31.574.392-42.533 0-10.177.13-39.793-.131-57.537-.26-4.566-12.395-9.263-18.005-6.784ZM519.801 86.404c-.392 9.524-2.61 16.961-5.219 22.18-5.089 10.176-15.526 13.307-20.092-1.305-2.479-7.959-2.61-21.266-.783-32.356 1.826-11.351 6.784-19.831 15.004-19.049 8.219.783 12.003 11.22 11.09 30.53Zm-136.862 59.102c-.131 15.787-2.61 29.747-7.959 33.792-7.567 5.74-17.744 1.435-15.656-10.177 1.827-10.176 10.698-20.614 23.615-33.4v9.785Zm-2.088-59.233c-.522 8.611-2.74 17.353-5.218 22.311-5.089 10.176-15.657 13.307-20.093-1.305-3-10.046-2.218-22.962-.782-31.052 1.957-10.568 6.653-20.353 15.003-20.353 8.22 0 12.265 8.872 11.09 30.4Zm-79.194-.13c-.522 9.133-2.349 16.831-5.219 22.441-5.219 10.046-15.526 13.307-20.092-1.305-3.262-10.568-2.218-24.92-.783-32.617 1.957-11.482 7.045-19.701 15.004-18.918 8.089.913 12.003 11.35 11.09 30.399Zm363.225 10.698c-1.957 0-2.871 2.088-3.653 5.48-2.61 12.003-5.35 14.613-8.872 14.613-3.914 0-7.437-5.871-8.35-17.744-.653-9.263-.653-26.485.261-43.577.13-3.522-.783-7.045-10.177-10.437-4.044-1.435-9.915-3.653-12.916 3.392-8.22 19.962-11.482 35.879-12.264 42.272 0 .391-.392.391-.522-.392-.522-5.218-1.566-14.481-1.696-34.313 0-3.783-.783-7.176-5.089-9.785-2.739-1.696-11.089-4.827-14.09-1.174-2.61 3-5.61 11.09-8.742 20.614-2.609 7.698-4.305 13.047-4.305 13.047V50.003c0-3-2.088-4.044-2.609-4.175-2.74-.783-8.35-2.218-10.568-2.218-2.871 0-3.523 1.566-3.523 3.914 0 .261-.392 27.53-.392 46.578v2.74c-1.565 8.741-6.784 20.614-12.394 20.614s-8.22-4.958-8.22-27.66c0-13.308.392-19.048.653-28.573.13-5.48.391-9.785.261-10.698 0-3-5.089-4.436-7.567-4.958-2.349-.522-4.436-.783-6.132-.652-2.349.13-3.915 1.696-3.915 3.653v3.262c-3-4.697-7.697-7.828-10.828-8.742-8.481-2.479-17.353-.26-24.137 9.133-5.349 7.437-8.481 15.917-9.785 28.05-.914 8.873-.653 17.875 1.043 25.442-1.957 8.611-5.61 12.134-9.654 12.134-5.871 0-10.046-9.524-9.655-26.094.261-10.829 2.479-18.526 4.827-29.486 1.044-4.697.131-7.175-1.826-9.524-1.957-2.218-5.871-3.262-11.742-1.957-4.175.913-10.046 1.957-15.396 2.87 0 0 .261-1.304.653-3.653 1.435-12.003-11.612-11.09-15.787-7.176-2.479 2.349-4.175 4.958-4.827 9.916-1.044 7.698 5.218 11.35 5.218 11.35-2.087 9.395-7.175 21.79-12.394 30.791-2.74 4.828-4.958 8.35-7.698 12.134v-4.175c0-19.831.261-35.487.261-41.098.131-5.48.392-9.654.261-10.568 0-2.218-1.305-3-3.914-4.044-2.348-.913-5.088-1.566-7.959-1.827-3.653-.26-5.74 1.566-5.74 3.914v3.001c-3.001-4.697-7.698-7.828-10.829-8.741-8.481-2.48-17.352-.261-24.137 9.133-5.349 7.436-8.741 17.874-9.785 27.92-.913 9.263-.783 17.222.522 23.876-1.305 6.654-5.219 13.699-9.655 13.699-5.61 0-8.872-4.958-8.872-27.66 0-13.307.392-19.048.653-28.572.13-5.48.391-9.785.261-10.699 0-3-5.089-4.435-7.568-4.957-2.479-.522-4.566-.783-6.262-.653-2.218.13-3.653 2.088-3.653 3.523v3.392c-3.001-4.697-7.698-7.828-10.829-8.741-8.481-2.48-17.352-.261-24.137 9.133-4.436 6.131-7.958 12.785-9.785 27.79-.522 4.305-.783 8.35-.783 12.133-1.696 10.698-9.524 23.093-15.787 23.093-3.653 0-7.175-7.176-7.175-22.571 0-20.484 1.304-49.448 1.435-52.318 0 0 7.958-.13 9.524-.13 4.045 0 7.567 0 12.916-.262 2.61-.13 5.219-9.654 2.479-10.959-1.304-.522-10.046-1.044-13.568-1.044-3.001-.13-11.09-.652-11.09-.652s.783-19.31.913-21.397c.131-1.696-2.087-2.61-3.262-3.131-3-1.305-5.871-1.957-9.002-2.61-4.436-.913-6.523 0-6.915 3.784-.652 5.74-.913 22.571-.913 22.571-3.262 0-14.613-.652-17.874-.652-3.001 0-6.393 13.177-2.088 13.308 4.828.13 13.308.391 19.049.522 0 0-.261 29.616-.261 38.618v2.87c-3.132 16.179-13.96 24.92-13.96 24.92 2.348-10.698-2.479-18.657-11.09-25.441-3.132-2.48-9.394-7.176-16.439-12.395 0 0 4.044-4.044 7.697-12.003 2.61-5.74 2.61-12.264-3.653-13.7-10.307-2.348-18.918 5.22-21.397 13.309-1.957 6.262-.913 10.959 3.001 15.786.261.392.652.653.913 1.044-2.348 4.567-5.61 10.568-8.219 15.265-7.567 13.047-13.308 23.354-17.614 23.354-3.392 0-3.392-10.438-3.392-20.353 0-8.48.653-21.136 1.175-34.314.13-4.305-1.958-6.784-5.611-9.132-2.218-1.305-6.914-4.045-9.654-4.045-4.045 0-15.918.522-27.138 32.878-1.435 4.045-4.175 11.481-4.175 11.481l.261-38.88c0-.912-.522-1.826-1.566-2.348-1.826-1.043-6.914-3.13-11.35-3.13-2.088 0-3.262 1.043-3.262 3l-.391 60.929c0 4.566.13 10.046.522 12.394.39 2.349 1.174 4.306 2.087 5.48.913 1.174 1.957 1.957 3.653 2.348 1.566.392 10.438 1.436 10.96-1.957.521-4.044.521-8.48 5.218-24.919 7.306-25.572 16.7-37.967 21.136-42.403.783-.782 1.696-.782 1.566.392-.131 5.61-.914 19.57-1.305 31.443-1.174 31.834 4.566 37.705 12.916 37.705 6.263 0 15.265-6.262 24.79-22.179 6.001-9.916 11.742-19.701 15.917-26.616 2.87 2.74 6.132 5.61 9.394 8.611 7.567 7.176 10.046 13.96 8.349 20.484-1.304 4.957-6.001 10.046-14.482 5.088-2.478-1.435-3.522-2.609-6.001-4.175-1.305-.913-3.392-1.174-4.566-.261-3.132 2.348-4.958 5.349-6.002 9.133-1.044 3.653 2.609 5.61 6.393 7.306 3.262 1.435 10.307 2.74 14.743 2.87 17.352.522 31.312-8.35 41.098-31.573 1.696 20.092 9.132 31.312 22.049 31.312 8.611 0 17.222-11.089 21.005-22.049a40.81 40.81 0 0 0 4.697 11.612c9.916 15.656 29.095 12.264 38.749-1.044 3.001-4.175 3.393-5.61 3.393-5.61 1.435 12.525 11.481 16.961 17.352 16.961 6.523 0 13.177-3.131 17.874-13.699.522 1.174 1.174 2.218 1.827 3.261 9.915 15.657 29.094 12.264 38.749-1.043.391-.653.913-1.175 1.174-1.696l.261 8.219s-5.48 5.088-8.872 8.089c-14.873 13.699-26.224 24.006-27.007 36.01-1.044 15.395 11.351 21.135 20.875 21.788 10.046.783 18.657-4.697 23.876-12.525 4.697-6.785 7.698-21.528 7.437-36.01-.131-5.74-.261-13.177-.392-21.135 5.219-6.133 11.09-13.7 16.57-22.702 5.871-9.785 12.264-22.963 15.525-33.14 0 0 5.48 0 11.351-.39 1.827-.131 2.479.26 2.088 1.696-.392 1.696-7.437 28.703-1.044 46.707 4.436 12.264 14.221 16.309 20.092 16.309 6.785 0 13.438-5.219 16.961-12.786.392.913.913 1.696 1.305 2.479 9.915 15.656 29.094 12.264 38.749-1.044 2.218-3.001 3.392-5.61 3.392-5.61 2.088 13.047 12.264 17.091 18.005 17.091 6.001 0 11.742-2.478 16.439-13.438.13 4.827.522 8.872 1.044 10.046.261.783 1.957 1.696 3.261 2.218 5.48 2.088 11.221 1.044 13.308.653 1.435-.261 2.61-1.436 2.74-4.436.392-7.829.131-21.006 2.479-30.921 4.045-16.44 7.698-22.833 9.524-25.964 1.044-1.826 2.088-2.087 2.088-.13.13 3.783.261 15.004 1.826 29.877 1.175 10.96 2.61 17.483 3.784 19.57 3.392 5.872 7.437 6.132 10.829 6.132 2.087 0 6.654-.652 6.132-4.305-.131-1.827.13-13.177 4.044-29.355 2.61-10.568 6.915-20.223 8.481-23.615.522-1.305.783-.261.783-.13-.392 7.305-1.044 31.181 1.957 44.228 4.044 17.744 15.656 19.701 19.7 19.701 8.611 0 15.787-6.654 18.136-24.006.652-4.306-.131-7.568-2.74-7.568Z"/></svg>
